{"title":"Terminator.Genisys.2015.HD-TS.XVID.AC3.HQ.Hive-CM8","uid":12116177,"size":1805164305,"categoryP":"video","categoryS":"movies","magnet":"?xt=urn:btih:03b8f178f25cc90a6e1a6efd0fe1e3aff1e22b66&amp;dn=Terminator.Genisys.2015.HD-TS.XVID.AC3.HQ.Hive-CM8&amp;tr=udp%3A%2F%2Ftracker.openbittorrent.com%3A80&amp;tr=udp%3A%2F%2Fopen.demonii.com%3A1337&amp;tr=udp%3A%2F%2Ftracker.coppersurfer.tk%3A6969&amp;tr=udp%3A%2F%2Fexodus.desync.com%3A6969","seeders":0,"leechers":1,"uploader":"TvTeam","files":6,"time":1436712922,"description":"------------------------------------------------------------------------\n\n &lt;a href=&quot; https://www.torrenting.com&quot; rel=&quot;nofollow&quot; target=&quot;_NEW&quot;&gt; https://www.torrenting.com&lt;/a&gt;\n\nSign up is OPEN - for time being. Come and have fun\n\n.......................................................................................................................[center][img]http://img673.imageshack.us/img673/4443/pXdue0.jpg[/img]\n\n \n[color=blue][size=4][b]Terminator.Genisys.2015.HD-TS.XVID.AC3.HQ.Hive-CM8[/b][/size][/color]\n\nThx Hive\n\nCM8 Doing It Right The First Time\n\nSources:\n\nVideo: MRG + intro + afterending scenes\nAudio:  Sweet Line Big Thx to S4NDM4N\n \nNotes:\n\nvideo from mrg was nice and complete only the intro was missing which i now got too.\nthe cam itself is ok, the first hour is a bit darker than the rest, but more than watchable.\n\nEncode:\n\nlooks like the cam is a mix of 3 recordings, needed to be cut in pieces and every part needed adjusting perspective and ar differently\nended up with 3 parts with different resolution, from 720x288 up to 720x336, since i didnt want to crop 50 lines i added virtual borders,\nfor the parts that didnt have the highest height, so no eggheads, no shrinked ones, and nothing cropped.\nsince the first hour is a bit darker than the rest i added brightness and contrast as needed without going over, colouring adjusted when needed too\n\nadded intro from a fan I.R thx m8, also appended the afterendcreditscene from another fan thx too\nso its all here from start to finish with great audio and all special effects are perfect now too.\n\nfor the Audio i got another great perfect line no cleaning needed, lipsynced it to my video\n\nwill do me till a web-dl pops up\ngot very nice\nenjoy\n\nPS: a special thx to cadance who sent me a very nice audio for that movie, which i couldnt use cause the direct line is better\nthx m8\n\nVideo: 720x336 @bitrate 1700 2pass\nAudio: English Line Stereo 2.0\nSample: yes included dark,normal,daylight\n\nGeneral\n\nComplete name                  : Terminator.Genisys.2015.HD-TS.XVID.AC3.HQ.Hive-CM8.avi\nFormat                         : AVI\nFormat/Info                    : Audio Video Interleave\nFile size                      : 1.65 GiB\nDuration                       : 2h 0mn\nOverall bit rate               : 1 969 Kbps\nWriting application            : Nandub v1.0rc2\nWriting library                : Nandub build 1853/release\n\nVideo\nID                             : 0\nFormat                         : MPEG-4 Visual\nFormat profile                 : Advanced Simple@L5\nFormat settings, BVOP          : 2\nFormat settings, QPel          : Yes\nFormat settings, GMC           : No warppoints\nFormat settings, Matrix        : Default (H.263)\nMuxing mode                    : Packed bitstream\nCodec ID                       : XVID\nCodec ID/Hint                  : XviD\nDuration                       : 2h 0mn\nBit rate                       : 1 701 Kbps\nWidth                          : 720 pixels\nHeight                         : 336 pixels\nDisplay aspect ratio           : 2.143\nFrame rate                     : 29.970 fps\nColor space                    : YUV\nChroma subsampling             : 4:2:0\nBit depth                      : 8 bits\nScan type                      : Progressive\nCompression mode               : Lossy\nBits/(Pixel*Frame)             : 0.235\nStream size                    : 1.43 GiB (86%)\nWriting library                : XviD 1.2.1 (UTC 2008-12-04)\n\nAudio\nID                             : 1\nFormat                         : AC-3\nFormat/Info                    : Audio Coding 3\nMode extension                 : CM (complete main)\nFormat settings, Endianness    : Big\nCodec ID                       : 2000\nDuration                       : 2h 0mn\nBit rate mode                  : Constant\nBit rate                       : 256 Kbps\nChannel(s)                     : 2 channels\nChannel positions              : Front: L R\nSampling rate                  : 48.0 KHz\nBit depth                      : 16 bits\nCompression mode               : Lossy\nStream size                    : 220 MiB (13%)\nAlignment                      : Split accross interleaves\nInterleave, duration           : 33 ms (1.00 video frame)\nInterleave, preload duration   : 500 ms\n\nScreens \n\n[img]http://img537.imageshack.us/img537/1989/ePLTPD.png[/img]\n[img]http://img909.imageshack.us/img909/9633/LyO78C.png[/img]\n[img]http://img673.imageshack.us/img673/6109/F8UrA7.png[/img]\n[img]http://img905.imageshack.us/img905/5365/Kf7cHH.png[/img]\n[img]http://img908.imageshack.us/img908/5186/xikQP4.png[/img]\n[img]http://img905.imageshack.us/img905/3862/u6Tmjb.png[/img]\n[img]http://img540.imageshack.us/img540/5575/OAMqFg.png[/img]\n\ndarker scenes:\n\n[img]http://img908.imageshack.us/img908/5783/zV7Cpp.png[/img]\n[img]http://img673.imageshack.us/img673/3194/Ep4Teq.png[/img]\n\nPlot\n\nWhen John Connor (Jason Clarke), leader of the human resistance against Skynet, sends Kyle Reese (Jai Courtney) back to 1984 to protect his mother, \nSarah (Emilia Clarke), from a Terminator assassin, an unexpected turn of events creates an altered timeline. \nInstead of a scared waitress, Sarah is a skilled fighter and has a Terminator guardian (Arnold Schwarzenegger) by her side. \nFaced with unlikely allies and dangerous new enemies, Reese sets out on an unexpected new mission: reset the future.\n\nCast\nArnold Schwarzenegger \t... \tGuardian \nJason Clarke \t... \tJohn Connor \nEmilia Clarke \t... \tSarah Connor \nJai Courtney \t... \tKyle Reese \nJ.K. Simmons \t... \tO'Brien\nDayo Okeniyi \t... \tDanny Dyson \n\n\nGreetz\n\nSugarB,iNCOMiNG,jiinx,SiMPLE,CherryBomb\nViSiON,YanKeeS,COPYxRIGHT,THC,VAiN,ACAB\nLKRG,Kingstoner,ACAB,SiMPLE,TiTAN\nUnevano,BigVik,Rapeseed,SAFC,goldadvance,KaN1vE,Pinnz,Wayne,HiGH\nSeeN,jtr,Limey,ICONiK,TED,rkofan,mrtoke09 (ya whinging old man here ya go lol )\nMr Hive\n\nLOOKING FOR ANYTHING YOU WANT TO LOOK AND SOUND BETTER\n\nCOME FIND US WE DONT BITE \n&lt;a class=&quot;__cf_email__&quot; href=&quot;/cdn-cgi/l/email-protection&quot; data-cfemail=&quot;b6f5fb8ef6dec3c5dedbd7dfda98dbd3&quot;&gt;[email&amp;#160;protected]&lt;/a&gt;&lt;script data-cfhash='f9e31' type=&quot;text/javascript&quot;&gt;\n/* &lt;![CDATA[ */!function(){try{var t=&quot;currentScript&quot;in document?document.currentScript:function(){for(var t=document.getElementsByTagName(&quot;script&quot;),e=t.length;e--;)if(t[e].getAttribute(&quot;data-cfhash&quot;))return t[e]}();if(t&amp;&amp;t.previousSibling){var e,r,n,i,c=t.previousSibling,a=c.getAttribute(&quot;data-cfemail&quot;);if(a){for(e=&quot;&quot;,r=parseInt(a.substr(0,2),16),n=2;a.length-n;n+=2)i=parseInt(a.substr(n,2),16)^r,e+=String.fromCharCode(i);e=document.createTextNode(e),c.parentNode.replaceChild(e,c)}t.parentNode.removeChild(t);}}catch(u){}}()/* ]]&gt; */&lt;/script&gt;[/center]","torrent":{"xt":"urn:btih:03b8f178f25cc90a6e1a6efd0fe1e3aff1e22b66","amp;dn":"Terminator.Genisys.2015.HD-TS.XVID.AC3.HQ.Hive-CM8","amp;tr":["udp%3A%2F%2Ftracker.openbittorrent.com%3A80","udp%3A%2F%2Fopen.demonii.com%3A1337","udp%3A%2F%2Ftracker.coppersurfer.tk%3A6969","udp%3A%2F%2Fexodus.desync.com%3A6969"],"infoHash":"03b8f178f25cc90a6e1a6efd0fe1e3aff1e22b66","infoHashBuffer":{"type":"Buffer","data":[3,184,241,120,242,92,201,10,110,26,110,253,15,225,227,175,241,226,43,102]},"announce":[],"urlList":[]}}